<?xml version="1.0" encoding="utf-8"?>
<svg width="30px" height="30px" viewBox="0 0 30 30" version="1.1" xmlns:xlink="http://www.w3.org/1999/xlink" xmlns="http://www.w3.org/2000/svg">
  <defs>
    <path d="M0 0L30 0L30 30L0 30L0 0Z" id="path_1" />
    <clipPath id="clip_1">
      <use xlink:href="#path_1" />
    </clipPath>
  </defs>
  <g id="Alertus" clip-path="url(#clip_1)">
    <path d="M0 0L30 0L30 30L0 30L0 0Z" id="Alertus" fill="none" fill-rule="evenodd" stroke="none" />
    <path d="M15 2.8125C8.28014 2.8125 2.8125 8.28015 2.8125 15C2.8125 18.7875 4.55146 22.177 7.27052 24.4141C7.35625 24.4888 7.43861 24.5669 7.52687 24.6387C8.04341 25.1525 8.6733 25.5763 9.4214 25.8472C9.65318 25.9616 9.888 26.0681 10.1294 26.1646C11.6228 26.8189 13.268 27.1876 15 27.1876C21.7199 27.1876 27.1876 21.7199 27.1876 15C27.1876 8.28015 21.7199 2.8125 15 2.8125L15 2.8125ZM15 4.6875C20.7066 4.6875 25.3125 9.29347 25.3125 15C25.3125 17.9344 24.0905 20.573 22.1314 22.4488C23.2038 20.8558 23.8306 18.9394 23.8306 16.8799C23.8306 11.3661 19.3395 6.87501 13.8257 6.87501C10.1217 6.87501 6.88748 8.90724 5.15869 11.9092C6.46815 7.71847 10.3708 4.6875 15 4.6875L15 4.6875ZM13.8257 8.75C18.3262 8.75 21.9556 12.3794 21.9556 16.8799C21.9556 19.3014 20.8979 21.4624 19.2261 22.9493C20.0092 21.7328 20.4712 20.2916 20.4712 18.7427C20.4712 14.4411 16.9627 10.9351 12.6611 10.9351C9.84452 10.9351 7.37693 12.4445 6.00342 14.69C6.95664 11.2599 10.0856 8.75 13.8257 8.75L13.8257 8.75ZM12.6611 12.8101C15.9494 12.8101 18.5962 15.4545 18.5962 18.7427C18.5962 20.5729 17.759 22.1845 16.4649 23.2715C16.884 22.439 17.107 21.5211 17.107 20.6006C17.107 19.2251 16.6531 17.8363 15.7031 16.7676C14.7532 15.6989 13.2921 14.9927 11.5015 14.9927C9.71085 14.9927 8.24975 15.6989 7.29981 16.7676C7.15847 16.9266 7.05066 17.1058 6.93115 17.2778C7.58274 14.7078 9.88207 12.8101 12.6611 12.8101L12.6611 12.8101ZM11.5015 16.8677C12.8233 16.8677 13.6955 17.3306 14.3018 18.0127C14.9081 18.6948 15.232 19.6417 15.232 20.6006C15.232 21.5595 14.9081 22.504 14.3018 23.1861C13.6955 23.8681 12.8233 24.3311 11.5015 24.3311C10.9971 24.3311 10.5765 24.2448 10.1929 24.1236C10.1627 24.1076 10.1301 24.0958 10.1001 24.0796C10.0879 24.073 10.0756 24.0667 10.0635 24.0601C9.67761 23.8498 9.31139 23.6082 8.95752 23.3521C8.84462 23.2613 8.72889 23.1749 8.62305 23.0762C8.07304 22.4037 7.771 21.5123 7.771 20.6006C7.771 19.6417 8.09487 18.6948 8.70117 18.0127C9.30748 17.3306 10.1796 16.8677 11.5015 16.8677L11.5015 16.8677Z" id="Form" fill="#FFFFFF" fill-rule="evenodd" stroke="none" />
  </g>
</svg>